# xmcd
#
# Track frame offsets:
#	150
#	19975
#	35623
#	54850
#	76312
#	98087
#	117439
#	139091
#	155004
#	174172
#	190631
#	211985
#	226711
#	248275
#
# Disc length: 3678 seconds
# Revision: 2
# Processed by: cddbd v1.5.2PL0 Copyright (c) Steve Scherf et al.
# Submitted via: dBpowerAMP V12.0
#
DISCID=a40e5c0e
DTITLE=Zdrowa Woda - Między mężczyzną a kobietą 
DYEAR=2005
DGENRE=Blues
TTITLE0=Między mężczyzną a kobietą 
TTITLE1=Idzie kryzys
TTITLE2=Zatańcz ze mną mała
TTITLE3=Zapach wiosny
TTITLE4=Mój nerw
TTITLE5=Sezony
TTITLE6=Czułości trzeba nam
TTITLE7=Nie ufam politykom
TTITLE8=Ulicznik
TTITLE9=Kocham Cię tak
TTITLE10=Jesienna transfuzja smutku
TTITLE11=Dumna
TTITLE12=Wszystko zmienne jest
TTITLE13=W pobliżu biedy
EXTD=
EXTT0=
EXTT1=
EXTT2=
EXTT3=
EXTT4=
EXTT5=
EXTT6=
EXTT7=
EXTT8=
EXTT9=
EXTT10=
EXTT11=
EXTT12=
EXTT13=
PLAYORDER=
